<svg width="18" height="18" viewBox="0 0 18 18" fill="none" xmlns="http://www.w3.org/2000/svg">
<path d="M8.99999 17.0417C8.74166 17.0417 8.49166 17.0083 8.28332 16.9333C5.09999 15.8417 0.0416565 11.9667 0.0416565 6.24166C0.0416565 3.32499 2.39999 0.958328 5.29999 0.958328C6.70832 0.958328 8.02499 1.50833 8.99999 2.49166C9.97499 1.50833 11.2917 0.958328 12.7 0.958328C15.6 0.958328 17.9583 3.33333 17.9583 6.24166C17.9583 11.975 12.9 15.8417 9.71666 16.9333C9.50832 17.0083 9.25832 17.0417 8.99999 17.0417ZM5.29999 2.20833C3.09166 2.20833 1.29166 4.01666 1.29166 6.24166C1.29166 11.9333 6.76666 15.1 8.69166 15.7583C8.84166 15.8083 9.16666 15.8083 9.31666 15.7583C11.2333 15.1 16.7167 11.9417 16.7167 6.24166C16.7167 4.01666 14.9167 2.20833 12.7083 2.20833C11.4417 2.20833 10.2667 2.79999 9.50832 3.82499C9.27499 4.14166 8.74166 4.14166 8.50832 3.82499C7.73332 2.79166 6.56666 2.20833 5.29999 2.20833Z" fill="#475467"/>
</svg>
