<svg width="14" height="16" viewBox="0 0 14 16" fill="none" xmlns="http://www.w3.org/2000/svg">
<path fill-rule="evenodd" clip-rule="evenodd" d="M7.00001 1.46664C5.62089 1.46664 4.29825 2.01449 3.32306 2.98968C2.34787 3.96487 1.80001 5.28751 1.80001 6.66664C1.80001 8.67842 3.1126 10.65 4.58077 12.1998C5.2985 12.9574 6.01895 13.578 6.56085 14.0096C6.72624 14.1413 6.87439 14.2549 7.00001 14.3489C7.12564 14.2549 7.27379 14.1413 7.43917 14.0096C7.98108 13.578 8.70152 12.9574 9.41925 12.1998C10.8874 10.65 12.2 8.67842 12.2 6.66664C12.2 5.28751 11.6522 3.96487 10.677 2.98968C9.70178 2.01449 8.37914 1.46664 7.00001 1.46664ZM7.00001 15.3333C6.55625 15.9989 6.55605 15.9988 6.55583 15.9987L6.55375 15.9973L6.54907 15.9941L6.53331 15.9835C6.52 15.9744 6.50116 15.9615 6.47713 15.9449C6.4291 15.9116 6.36034 15.8634 6.27381 15.8009C6.10082 15.6759 5.85635 15.4939 5.56417 15.2612C4.98108 14.7969 4.20152 14.1259 3.41925 13.3002C1.88742 11.6832 0.200012 9.32152 0.200012 6.66664C0.200012 4.86317 0.916439 3.13356 2.19169 1.85831C3.46693 0.583064 5.19654 -0.133362 7.00001 -0.133362C8.80348 -0.133362 10.5331 0.583064 11.8083 1.85831C13.0836 3.13356 13.8 4.86317 13.8 6.66664C13.8 9.32152 12.1126 11.6832 10.5808 13.3002C9.7985 14.1259 9.01895 14.7969 8.43585 15.2612C8.14367 15.4939 7.8992 15.6759 7.72622 15.8009C7.63969 15.8634 7.57092 15.9116 7.52289 15.9449C7.49887 15.9615 7.48002 15.9744 7.46672 15.9835L7.45095 15.9941L7.44627 15.9973L7.44475 15.9983C7.44453 15.9984 7.44377 15.9989 7.00001 15.3333ZM7.00001 15.3333L7.44377 15.9989C7.17505 16.1781 6.82455 16.1778 6.55583 15.9987L7.00001 15.3333ZM7.00001 5.46664C6.33727 5.46664 5.80001 6.0039 5.80001 6.66664C5.80001 7.32938 6.33727 7.86664 7.00001 7.86664C7.66275 7.86664 8.20001 7.32938 8.20001 6.66664C8.20001 6.0039 7.66275 5.46664 7.00001 5.46664ZM4.20001 6.66664C4.20001 5.12024 5.45362 3.86664 7.00001 3.86664C8.54641 3.86664 9.80001 5.12024 9.80001 6.66664C9.80001 8.21303 8.54641 9.46664 7.00001 9.46664C5.45361 9.46664 4.20001 8.21303 4.20001 6.66664Z" fill="#667085"/>
</svg>
